<?xml version="1.0" encoding="UTF-8" standalone="no"?>
<!DOCTYPE svg PUBLIC "-//W3C//DTD SVG 1.1//EN" "http://www.w3.org/Graphics/SVG/1.1/DTD/svg11.dtd">
<!-- Generated by Microsoft Visio, SVG Export HtmlDifferenceEngineFlow.svg Page-1 -->
<svg xmlns="http://www.w3.org/2000/svg" xmlns:xlink="http://www.w3.org/1999/xlink" xmlns:ev="http://www.w3.org/2001/xml-events"
		width="15.5458in" height="19.5242in" viewBox="0 0 1119.3 1405.74" xml:space="preserve" color-interpolation-filters="sRGB"
		class="st22">
	<style type="text/css">
	<![CDATA[
		.st1 {fill:#ffffff;fill-opacity:0;stroke:#000000;stroke-linecap:round;stroke-linejoin:round;stroke-width:0.75}
		.st2 {fill:#ffffff;stroke:#000000;stroke-linecap:round;stroke-linejoin:round;stroke-width:0.75}
		.st3 {fill:#ffffff;fill-opacity:0}
		.st4 {stroke:#000000;stroke-linecap:round;stroke-linejoin:round;stroke-width:0.75;visibility:hidden}
		.st5 {fill:#000000;font-family:Calibri;font-size:1.00001em}
		.st6 {font-size:1em;font-weight:bold}
		.st7 {fill:#ffffff;stroke:#000000;stroke-linecap:round;stroke-linejoin:round;stroke-width:0.75;visibility:hidden}
		.st8 {fill:#ffffff;stroke:#000000;stroke-linecap:round;stroke-linejoin:round;stroke-width:0.24}
		.st9 {fill:#d8d8d8;stroke:#000000;stroke-linecap:round;stroke-linejoin:round;stroke-width:0.75}
		.st10 {font-size:1em}
		.st11 {fill:#000000;font-family:Calibri;font-size:0.833336em;font-style:italic}
		.st12 {marker-end:url(#mrkr2-52);stroke:#000000;stroke-linecap:round;stroke-linejoin:round;stroke-width:0.75}
		.st13 {fill:#000000;fill-opacity:1;stroke:#000000;stroke-opacity:1;stroke-width:0.22935779816514}
		.st14 {marker-end:url(#mrkr4-58);stroke:#000000;stroke-linecap:round;stroke-linejoin:round;stroke-width:0.75}
		.st15 {font-size:1em;font-style:italic;font-weight:bold}
		.st16 {fill:#ffffff}
		.st17 {stroke:#000000;stroke-linecap:round;stroke-linejoin:round;stroke-width:0.75}
		.st18 {fill:#000000;font-family:Calibri;font-size:0.833336em;font-style:italic;font-weight:bold}
		.st19 {fill:#ffffff;stroke:none;stroke-linecap:butt;stroke-width:7.2}
		.st20 {fill:#000000;font-family:Calibri;font-size:0.666664em}
		.st21 {marker-end:url(#mrkr4-58);stroke:#000000;stroke-dasharray:5.25,3.75;stroke-linecap:round;stroke-linejoin:round;stroke-width:0.75}
		.st22 {fill:none;fill-rule:evenodd;font-size:12px;overflow:visible;stroke-linecap:square;stroke-miterlimit:3}
	]]>
	</style>

	<defs id="Markers">
		<g id="lend2">
			<path d="M 1 1 L 0 0 L 1 -1 L 1 1 " style="stroke:none"/>
		</g>
		<marker id="mrkr2-52" class="st13" refX="-4.36" orient="auto" markerUnits="strokeWidth" overflow="visible">
			<use xlink:href="#lend2" transform="scale(-4.36,-4.36) "/>
		</marker>
		<g id="lend4">
			<path d="M 2 1 L 0 0 L 2 -1 L 2 1 " style="stroke:none"/>
		</g>
		<marker id="mrkr4-58" class="st13" refX="-8.72" orient="auto" markerUnits="strokeWidth" overflow="visible">
			<use xlink:href="#lend4" transform="scale(-4.36,-4.36) "/>
		</marker>
	</defs>
	<g>
		<title>Page-1</title>
		<g id="group4-1" transform="translate(0.375,-0.375)">
			<title>CFF Container</title>
			<g id="shape5-2">
				<title>Sheet.5</title>
				<rect x="0" y="0.750002" width="1118.55" height="1404.99" class="st1"/>
			</g>
			<g id="shape6-4" transform="translate(0,-1404.99)">
				<title>Sheet.6</title>
				<desc>HtmlDifferenceEngine</desc>
				<path d="M0 1405.74 L1118.55 1405.74 L0 1405.74 Z" class="st2"/>
			</g>
		</g>
		<g id="shape7-6" transform="translate(0.375,-0.375)">
			<title>Swimlane List</title>
			<rect x="0" y="0.750002" width="1118.55" height="1404.99" class="st3"/>
			<rect x="0" y="0.750002" width="1118.55" height="1404.99" class="st4"/>
		</g>
		<g id="group1-9" transform="translate(0.375,-0.375)">
			<title>Swimlane (vertical)</title>
			<g id="shape2-10">
				<title>Sheet.2</title>
				<rect x="0" y="0.750002" width="364.677" height="1404.99" class="st1"/>
			</g>
			<g id="shape3-12" transform="translate(0,-1368.19)">
				<title>Sheet.3</title>
				<desc>public IList&#60;IDiff&#62; Compare(control nodes, test nodes)</desc>
				<path d="M0 1405.74 L364.68 1405.74 L364.68 1368.94 L0 1368.94 L0 1405.74 Z" class="st2"/>
				<text x="50.62" y="1390.94" class="st5">public IList&#60;IDiff&#62; <tspan class="st6">Compare</tspan>(control nodes, test nodes)</text>			</g>
		</g>
		<g id="group12-16" transform="translate(365.052,-0.375)">
			<title>Swimlane (vertical).12</title>
			<g id="shape13-17">
				<title>Sheet.13</title>
				<rect x="0" y="0.750002" width="325.984" height="1404.99" class="st1"/>
			</g>
			<g id="shape14-19" transform="translate(0,-1368.19)">
				<title>Sheet.14</title>
				<desc>private IEnumerable&#60;IDiff&#62; CompareNodes(node comparison)</desc>
				<path d="M0 1405.74 L325.98 1405.74 L325.98 1368.94 L0 1368.94 L0 1405.74 Z" class="st2"/>
				<text x="11.32" y="1390.94" class="st5">private IEnumerable&#60;IDiff&#62; <tspan class="st6">CompareNodes</tspan>(node comparison)</text>			</g>
		</g>
		<g id="group74-23" transform="translate(691.036,-0.375)">
			<title>Swimlane (vertical).74</title>
			<g id="shape75-24">
				<title>Sheet.75</title>
				<rect x="0" y="0.750002" width="427.89" height="1404.99" class="st1"/>
			</g>
			<g id="shape76-26" transform="translate(0,-1368.19)">
				<title>Sheet.76</title>
				<desc>private IEnumerable&#60;IDiff&#62; CompareAttributes(element comparis...</desc>
				<path d="M0 1405.74 L427.89 1405.74 L427.89 1368.94 L0 1368.94 L0 1405.74 Z" class="st2"/>
				<text x="44.92" y="1390.94" class="st5">private IEnumerable&#60;IDiff&#62; <tspan class="st6">CompareAttributes</tspan>(element comparison)</text>			</g>
		</g>
		<g id="shape8-30" transform="translate(0.375,-0.375)">
			<title>Phase List</title>
			<rect x="0" y="37.5539" width="1118.55" height="1368.19" class="st7"/>
		</g>
		<g id="group9-32" transform="translate(0.375,-0.375)">
			<title>Separator (vertical)</title>
			<g id="shape10-33" transform="translate(1405.74,37.5539) rotate(90)">
				<title>Sheet.10</title>
			</g>
			<g id="shape11-35" transform="translate(-1405.74,1405.74) rotate(-90)">
				<title>Sheet.11</title>
				<desc>Phase</desc>
				<path d="M0 1405.74 L1404.99 1405.74 L0 1405.74 Z" class="st8"/>
			</g>
		</g>
		<g id="shape18-37" transform="translate(163.792,-1317.54)">
			<title>Initial node</title>
			<ellipse cx="17.0079" cy="1388.73" rx="17.0079" ry="17.0079" class="st2"/>
		</g>
		<g id="shape19-39" transform="translate(124.107,-1173.99)">
			<title>Action</title>
			<desc>Filter control and test nodes</desc>
			<rect x="0" y="1361.88" width="113.386" height="43.8662" rx="8.50394" ry="8.50394" class="st9"/>
			<text x="14.71" y="1380.21" class="st5">Filter control and <tspan x="31.18" dy="1.2em" class="st10">test nodes</tspan></text>		</g>
		<g id="shape20-43" transform="translate(139.237,-1257.09)">
			<title>Rectangle</title>
			<desc>control nodes test nodes</desc>
			<rect x="0" y="1368.94" width="83.126" height="36.8038" class="st8"/>
			<text x="14.07" y="1384.34" class="st11">control nodes<tspan x="20.71" dy="1.2em" class="st10">test nodes</tspan></text>		</g>
		<g id="shape21-47" transform="translate(173.714,-1317.54)">
			<title>Dynamic connector</title>
			<path d="M7.09 1405.74 L7.09 1426.12" class="st12"/>
		</g>
		<g id="shape22-53" transform="translate(173.714,-1257.09)">
			<title>Dynamic connector.22</title>
			<path d="M7.09 1405.74 L7.09 1438.44" class="st14"/>
		</g>
		<g id="shape23-59" transform="translate(139.237,-1099.37)">
			<title>Rectangle.23</title>
			<desc>Filtered control and test nodes</desc>
			<rect x="0" y="1361.88" width="83.126" height="43.8662" class="st8"/>
			<text x="26.24" y="1374.81" class="st11">Filtered <tspan x="9.59" dy="1.2em" class="st10">control and test </tspan><tspan
						x="29.52" dy="1.2em" class="st10">nodes</tspan></text>		</g>
		<g id="shape24-64" transform="translate(124.107,-1005.21)">
			<title>Action.24</title>
			<desc>Match control nodes with test nodes</desc>
			<rect x="0" y="1347.58" width="113.386" height="58.1589" rx="8.50394" ry="8.50394" class="st9"/>
			<text x="22.14" y="1365.86" class="st5">Match control <tspan x="29.71" dy="1.2em" class="st10">nodes with </tspan><tspan
						x="31.18" dy="1.2em" class="st10">test nodes</tspan></text>		</g>
		<g id="shape25-69" transform="translate(173.714,-1173.99)">
			<title>Dynamic connector.25</title>
			<path d="M7.09 1405.74 L7.09 1429.96" class="st14"/>
		</g>
		<g id="shape26-74" transform="translate(173.714,-1099.37)">
			<title>Dynamic connector.26</title>
			<path d="M7.09 1405.74 L7.09 1435.2" class="st14"/>
		</g>
		<g id="shape27-79" transform="translate(139.237,-908.233)">
			<title>Rectangle.27</title>
			<desc>Node comparisons (pairs of control and test nodes)</desc>
			<rect x="0" y="1347.58" width="83.126" height="58.1589" class="st8"/>
			<text x="4.05" y="1367.66" class="st11">Node comparisons<tspan x="9.43" dy="1.2em" class="st10">(pairs of control </tspan><tspan
						x="10.35" dy="1.2em" class="st10">and test nodes)</tspan></text>		</g>
		<g id="shape28-84" transform="translate(45.0356,-752.83)">
			<title>Action.28</title>
			<desc>Find unmatched control and test nodes</desc>
			<rect x="0" y="1347.58" width="113.386" height="58.1589" rx="8.50394" ry="8.50394" class="st2"/>
			<text x="17.09" y="1365.86" class="st5">Find unmatched <tspan x="17.95" dy="1.2em" class="st10">control and test </tspan><tspan
						x="41.89" dy="1.2em" class="st10">nodes</tspan></text>		</g>
		<g id="shape29-89" transform="translate(145.367,-868.975)">
			<title>Fork node</title>
			<rect x="0" y="1388.73" width="70.8661" height="17.0079" class="st2"/>
		</g>
		<g id="shape30-91" transform="translate(173.714,-1004.78)">
			<title>Dynamic connector.30</title>
			<path d="M7.09 1405.74 L7.09 1437.59" class="st14"/>
		</g>
		<g id="shape31-96" transform="translate(173.714,-908.233)">
			<title>Dynamic connector.31</title>
			<path d="M7.09 1405.74 L7.09 1421.45" class="st14"/>
		</g>
		<g id="shape32-101" transform="translate(145.367,-877.479)">
			<title>Dynamic connector.32</title>
			<path d="M0 1405.74 L-43.64 1405.74 L-43.64 1465.69" class="st14"/>
		</g>
		<g id="shape33-106" transform="translate(93.9752,-548.967)">
			<title>Rectangle.33</title>
			<desc>Unmatched control nodes</desc>
			<rect x="0" y="1361.88" width="63.248" height="43.8662" class="st8"/>
			<text x="8.04" y="1380.81" class="st11">Unmatched <tspan x="4.13" dy="1.2em" class="st10">control nodes</tspan></text>		</g>
		<g id="shape34-110" transform="translate(147.284,-650.873)">
			<title>Fork node.34</title>
			<rect x="0" y="1388.73" width="70.8661" height="17.0079" class="st2"/>
		</g>
		<g id="shape35-112" transform="translate(101.729,-752.83)">
			<title>Dynamic connector.35</title>
			<path d="M0 1405.74 L0 1447.03 L80.99 1447.03 L80.99 1484.15" class="st14"/>
		</g>
		<g id="shape38-117" transform="translate(219.284,-548.967)">
			<title>Rectangle.38</title>
			<desc>Unmatched test nodes</desc>
			<rect x="0" y="1361.88" width="63.248" height="43.8662" class="st8"/>
			<text x="8.04" y="1380.81" class="st11">Unmatched <tspan x="10.77" dy="1.2em" class="st10">test nodes</tspan></text>		</g>
		<g id="shape39-121" transform="translate(165.001,-650.873)">
			<title>Dynamic connector.39</title>
			<path d="M0 1405.74 L0 1441.74 L-39.4 1441.74 L-39.4 1457.24" class="st14"/>
		</g>
		<g id="shape40-126" transform="translate(200.434,-650.873)">
			<title>Dynamic connector.40</title>
			<path d="M0 1405.74 L0 1441.74 L50.47 1441.74 L50.47 1457.24" class="st14"/>
		</g>
		<g id="shape41-131" transform="translate(68.9063,-445.432)">
			<title>Action.41</title>
			<desc>Create MissingDiff for each unmatched control node</desc>
			<rect x="0" y="1329.37" width="113.386" height="76.3745" rx="8.50394" ry="8.50394" class="st2"/>
			<text x="10.89" y="1356.75" class="st5">Create <tspan class="st15">MissingDiff </tspan><tspan x="7.54" dy="1.2em"
						class="st10">for each unmatched </tspan><tspan x="25.39" dy="1.2em" class="st10">control node</tspan></text>		</g>
		<g id="shape42-137" transform="translate(194.961,-445.432)">
			<title>Action.42</title>
			<desc>Create UnexpectedDiff for each unmatched test node</desc>
			<rect x="0" y="1329.37" width="113.386" height="76.3745" rx="8.50394" ry="8.50394" class="st2"/>
			<text x="40.55" y="1349.55" class="st5">Create <tspan x="9.63" dy="1.2em" class="st15">UnexpectedDiff </tspan>for <tspan
						x="5.27" dy="1.2em" class="st10">each unmatched test </tspan><tspan x="44.24" dy="1.2em" class="st10">node</tspan></text>		</g>
		<g id="shape43-143" transform="translate(118.513,-548.967)">
			<title>Dynamic connector.43</title>
			<path d="M7.09 1405.74 L7.09 1426.36" class="st14"/>
		</g>
		<g id="shape44-148" transform="translate(243.822,-548.967)">
			<title>Dynamic connector.44</title>
			<path d="M7.09 1405.74 L7.09 1426.36" class="st14"/>
		</g>
		<g id="shape45-153" transform="translate(154.371,-288.746)">
			<title>Join node</title>
			<rect x="0" y="1388.73" width="70.8661" height="17.0079" class="st2"/>
		</g>
		<g id="shape46-155" transform="translate(118.513,-445.432)">
			<title>Dynamic connector.46</title>
			<path d="M7.09 1405.74 L7.09 1430.38" class="st14"/>
		</g>
		<g id="shape47-160" transform="translate(244.195,-445.432)">
			<title>Dynamic connector.47</title>
			<path d="M6.71 1405.74 L7.3 1430.39" class="st14"/>
		</g>
		<g id="shape48-165" transform="translate(218.844,-715.913)">
			<title>Action.48</title>
			<desc>Call CompareNodes(...) with each comparison (matched pair of ...</desc>
			<rect x="0" y="1285.67" width="113.386" height="120.077" rx="8.50394" ry="8.50394" class="st2"/>
			<text x="47.87" y="1306.1" class="st5">Call <tspan x="10.08" dy="1.2em" class="st15">CompareNodes(...) </tspan><tspan
						x="32.96" dy="1.2em" class="st10">with each </tspan><tspan x="28.04" dy="1.2em" class="st10">comparison </tspan><tspan
						x="16.17" dy="1.2em" class="st10">(matched pair of </tspan><tspan x="17.95" dy="1.2em" class="st10">control and test </tspan><tspan
						x="40.07" dy="1.2em" class="st10">nodes)</tspan></text>		</g>
		<g id="shape49-174" transform="translate(216.233,-877.479)">
			<title>Dynamic connector.49</title>
			<path d="M0 1405.74 L59.3 1405.74 L59.3 1440.69" class="st14"/>
		</g>
		<g id="shape51-179" transform="translate(172.796,-54.5339)">
			<title>Final node</title>
			<path d="M30.61 1388.73 A13.6063 13.6063 -180 1 0 3.4 1388.73 A13.6063 13.6063 -180 1 0 30.61 1388.73 Z" class="st16"/>
			<path d="M34.02 1388.73 A17.0079 17.0079 -180 1 0 0 1388.73 A17.0079 17.0079 -180 1 0 34.02 1388.73" class="st17"/>
			<path d="M30.61 1388.73 A13.6063 13.6063 -180 1 0 3.4 1388.73 A13.6063 13.6063 -180 1 0 30.61 1388.73" class="st17"/>
		</g>
		<g id="shape52-183" transform="translate(158.101,-122.636)">
			<title>Rectangle.52</title>
			<desc>Diffs</desc>
			<rect x="0" y="1361.88" width="63.248" height="43.8662" class="st8"/>
			<text x="22.11" y="1386.81" class="st18">Diffs</text>		</g>
		<g id="shape54-186" transform="translate(182.678,-122.636)">
			<title>Dynamic connector.54</title>
			<path d="M7.05 1405.74 L7.11 1433.29" class="st14"/>
		</g>
		<g id="shape55-191" transform="translate(93.9752,-370.384)">
			<title>Rectangle.55</title>
			<desc>MissingDiffs</desc>
			<rect x="0" y="1361.88" width="63.248" height="43.8662" class="st8"/>
			<text x="6.07" y="1386.81" class="st18">MissingDiffs</text>		</g>
		<g id="shape56-194" transform="translate(207.496,-370.384)">
			<title>Rectangle.56</title>
			<desc>UnexpectedDiffs</desc>
			<rect x="0" y="1361.88" width="88.3169" height="43.8662" class="st8"/>
			<text x="10.01" y="1386.81" class="st18">UnexpectedDiffs</text>		</g>
		<g id="shape57-197" transform="translate(125.599,-370.384)">
			<title>Dynamic connector.57</title>
			<path d="M0 1405.74 L0 1441.74 L46.49 1441.74 L46.49 1463.83" class="st14"/>
		</g>
		<g id="shape58-202" transform="translate(251.654,-370.384)">
			<title>Dynamic connector.58</title>
			<path d="M0 1405.74 L0 1441.74 L-44.13 1441.74 L-44.13 1463.83" class="st14"/>
		</g>
		<g id="shape59-207" transform="translate(448.09,-1146.94)">
			<title>Action.59</title>
			<desc>Compare matched control and test node</desc>
			<rect x="0" y="1347.58" width="127.063" height="58.1589" rx="8.50394" ry="8.50394" class="st9"/>
			<text x="18.41" y="1373.06" class="st5">Compare matched <tspan x="10.98" dy="1.2em" class="st10">control and test node</tspan></text>		</g>
		<g id="shape60-211" transform="translate(494.613,-1317.54)">
			<title>Initial node.60</title>
			<ellipse cx="17.0079" cy="1388.73" rx="17.0079" ry="17.0079" class="st2"/>
		</g>
		<g id="shape61-213" transform="translate(504.534,-1317.54)">
			<title>Dynamic connector.61</title>
			<path d="M7.09 1405.74 L7.09 1433.49" class="st14"/>
		</g>
		<g id="shape62-218" transform="translate(479.997,-1239.39)">
			<title>Rectangle.62</title>
			<desc>Comparison</desc>
			<rect x="0" y="1361.88" width="63.248" height="43.8662" class="st8"/>
			<text x="7.41" y="1386.81" class="st11">Comparison</text>		</g>
		<g id="shape63-221" transform="translate(504.534,-1239.39)">
			<title>Dynamic connector.63</title>
			<path d="M7.09 1405.74 L7.09 1433.49" class="st14"/>
		</g>
		<g id="shape64-226" transform="translate(494.613,-1078.64)">
			<title>Decision</title>
			<desc>are nodes different?</desc>
			<path d="M17.01 1405.74 L34.02 1388.73 L17.01 1371.73 L0 1388.73 L17.01 1405.74 Z" class="st2"/>
			<text x="-7.1" y="1420.54" class="st5">are nodes <tspan x="-7.19" dy="1.2em" class="st10">different?</tspan></text>		</g>
		<g id="shape65-230" transform="translate(535.131,-993.021)">
			<title>Action.65</title>
			<desc>Create Diff</desc>
			<rect x="0" y="1371.73" width="113.386" height="34.0157" rx="8.50394" ry="8.50394" class="st2"/>
			<text x="30.14" y="1392.33" class="st5">Create <tspan class="st15">Diff</tspan></text>		</g>
		<g id="shape66-234" transform="translate(494.613,-933.127)">
			<title>Merge Node</title>
			<path d="M17.01 1405.74 L34.02 1388.73 L17.01 1371.73 L0 1388.73 L17.01 1405.74 Z" class="st2"/>
		</g>
		<g id="shape67-236" transform="translate(528.629,-1095.65)">
			<title>Dynamic connector.67</title>
			<desc>yes</desc>
			<path d="M0 1405.74 L63.19 1405.74 L63.19 1467.81" class="st14"/>
			<rect x="57.8298" y="1403.65" width="10.7303" height="9.59985" class="st19"/>
			<text x="57.83" y="1410.85" class="st20">yes</text>		</g>
		<g id="shape68-243" transform="translate(487.527,-1095.65)">
			<title>Dynamic connector.68</title>
			<desc>no</desc>
			<path d="M7.09 1405.74 L-39.46 1405.74 L-39.46 1551.25 L0.55 1551.25" class="st14"/>
			<rect x="-43.6886" y="1415.74" width="8.42184" height="9.59985" class="st19"/>
			<text x="-43.69" y="1422.94" class="st20">no</text>		</g>
		<g id="shape69-250" transform="translate(591.824,-993.021)">
			<title>Dynamic connector.69</title>
			<path d="M0 1405.74 L0 1448.63 L-56.65 1448.63" class="st14"/>
		</g>
		<g id="shape70-255" transform="translate(504.534,-1146.94)">
			<title>Dynamic connector.70</title>
			<path d="M7.09 1405.74 L7.09 1433.49" class="st14"/>
		</g>
		<g id="shape71-260" transform="translate(494.613,-864.789)">
			<title>Decision.71</title>
			<desc>comparing element nodes?</desc>
			<path d="M17.01 1405.74 L34.02 1388.73 L17.01 1371.73 L0 1388.73 L17.01 1405.74 Z" class="st2"/>
			<text x="-8.96" y="1420.54" class="st5">comparing<tspan x="-22.22" dy="1.2em" class="st10">element nodes?</tspan></text>		</g>
		<g id="shape72-264" transform="translate(504.534,-933.127)">
			<title>Dynamic connector.72</title>
			<path d="M7.09 1405.74 L7.09 1433.52" class="st14"/>
		</g>
		<g id="shape73-269" transform="translate(508.29,-769.933)">
			<title>Action.73</title>
			<desc>Call CompareAttributes(...)</desc>
			<rect x="0" y="1361.76" width="165.738" height="43.9857" rx="8.50394" ry="8.50394" class="st2"/>
			<text x="16.54" y="1387.35" class="st5">Call <tspan class="st15">CompareAttributes(...)</tspan></text>		</g>
		<g id="shape77-273" transform="translate(528.629,-881.796)">
			<title>Dynamic connector.77</title>
			<desc>yes</desc>
			<path d="M0 1405.74 L62.53 1405.74 L62.53 1467.08" class="st14"/>
			<rect x="57.1654" y="1403.62" width="10.7303" height="9.59985" class="st19"/>
			<text x="57.17" y="1410.82" class="st20">yes</text>		</g>
		<g id="shape79-280" transform="translate(494.613,-881.796)">
			<title>Dynamic connector.79</title>
			<desc>no</desc>
			<path d="M0 1405.74 L-49.58 1405.74 L-49.58 1564.33 L23.51 1564.33 L23.51 1622.99" class="st14"/>
			<rect x="-53.7946" y="1524.59" width="8.42184" height="9.59985" class="st19"/>
			<text x="-53.79" y="1531.79" class="st20">no</text>		</g>
		<g id="shape81-287" transform="translate(501.115,-623.997)">
			<title>Decision.81</title>
			<desc>control or test node have child nodes</desc>
			<path d="M17.01 1405.74 L34.02 1388.73 L17.01 1371.73 L0 1388.73 L17.01 1405.74 Z" class="st2"/>
			<text x="-31.62" y="1420.54" class="st5">control or test node <tspan x="-23.82" dy="1.2em" class="st10">have child nodes</tspan></text>		</g>
		<g id="shape83-291" transform="translate(382.06,-497.272)">
			<title>Action.83</title>
			<desc>Call Compare(...) recursively with the control test node&#39;s ch...</desc>
			<rect x="0" y="1329.37" width="130.89" height="76.3745" rx="8.50394" ry="8.50394" class="st2"/>
			<text x="24.22" y="1349.55" class="st5">Call <tspan class="st15">Compare(...) </tspan><tspan x="39.07" dy="1.2em"
						class="st10">recursively</tspan><tspan x="15.55" dy="1.2em" class="st10">with the control test </tspan><tspan
						x="20.21" dy="1.2em" class="st10">node&#39;s child nodes</tspan></text>		</g>
		<g id="shape84-298" transform="translate(332.23,-775.951)">
			<title>Dynamic connector.84</title>
			<path d="M0 1405.74 L12.24 1405.74 A2.3622 2.3622 0 1 1 16.96 1405.74 L51.04 1405.74 L51.04 847.15 L155.84 847.15"
					class="st14"/>
		</g>
		<g id="shape86-303" transform="translate(382.06,-535.459)">
			<title>Dynamic connector.86</title>
			<path d="M0 1405.74 L-35.23 1405.74 L-35.23 606.65 L-177.71 606.65" class="st21"/>
		</g>
		<g id="shape87-308" transform="translate(501.115,-641.005)">
			<title>Dynamic connector.87</title>
			<desc>yes</desc>
			<path d="M0 1405.74 L-53.61 1405.74 L-53.61 1466.56" class="st14"/>
			<rect x="-58.9754" y="1407.82" width="10.7303" height="9.59985" class="st19"/>
			<text x="-58.98" y="1415.02" class="st20">yes</text>		</g>
		<g id="shape88-315" transform="translate(482.69,-346.006)">
			<title>Merge Node.88</title>
			<path d="M17.01 1405.74 L34.02 1388.73 L17.01 1371.73 L0 1388.73 L17.01 1405.74 Z" class="st2"/>
		</g>
		<g id="shape89-317" transform="translate(535.131,-641.005)">
			<title>Dynamic connector.89</title>
			<desc>no</desc>
			<path d="M0 1405.74 L56.69 1405.74 L56.69 1683.73 L-11.89 1683.73" class="st14"/>
			<rect x="52.4819" y="1549.15" width="8.42184" height="9.59985" class="st19"/>
			<text x="52.48" y="1556.35" class="st20">no</text>		</g>
		<g id="shape91-324" transform="translate(440.418,-497.272)">
			<title>Dynamic connector.91</title>
			<path d="M7.09 1405.74 L7.09 1435.89" class="st14"/>
		</g>
		<g id="shape92-329" transform="translate(492.611,-346.006)">
			<title>Dynamic connector.92</title>
			<path d="M7.09 1405.74 L7.09 1443.44" class="st14"/>
		</g>
		<g id="shape93-334" transform="translate(482.69,-136.438)">
			<title>Final node.93</title>
			<path d="M30.61 1388.73 A13.6063 13.6063 -180 1 0 3.4 1388.73 A13.6063 13.6063 -180 1 0 30.61 1388.73 Z" class="st16"/>
			<path d="M34.02 1388.73 A17.0079 17.0079 -180 1 0 0 1388.73 A17.0079 17.0079 -180 1 0 34.02 1388.73" class="st17"/>
			<path d="M30.61 1388.73 A13.6063 13.6063 -180 1 0 3.4 1388.73 A13.6063 13.6063 -180 1 0 30.61 1388.73" class="st17"/>
		</g>
		<g id="shape94-338" transform="translate(468.074,-205.214)">
			<title>Rectangle.94</title>
			<desc>Diffs</desc>
			<rect x="0" y="1361.88" width="63.248" height="43.8662" class="st8"/>
			<text x="22.11" y="1386.81" class="st18">Diffs</text>		</g>
		<g id="shape95-341" transform="translate(415.881,-416.714)">
			<title>Rectangle.95</title>
			<desc>Diffs</desc>
			<rect x="0" y="1361.88" width="63.248" height="43.8662" class="st8"/>
			<text x="22.11" y="1386.81" class="st18">Diffs</text>		</g>
		<g id="shape97-344" transform="translate(492.611,-205.214)">
			<title>Dynamic connector.97</title>
			<path d="M7.09 1405.74 L7.09 1433.96" class="st14"/>
		</g>
		<g id="shape99-349" transform="translate(447.505,-416.714)">
			<title>Dynamic connector.99</title>
			<path d="M0 1405.74 L0 1459.44 L28.65 1459.44" class="st14"/>
		</g>
		<g id="shape103-354" transform="translate(482.69,-153.446)">
			<title>Dynamic connector.103</title>
			<path d="M0 1405.74 L-49.76 1405.74 L-49.76 1306.19 L-275.17 1306.19 L-275.17 1328.53" class="st14"/>
		</g>
		<g id="shape104-359" transform="translate(900.8,-1317.54)">
			<title>Initial node.104</title>
			<ellipse cx="17.0079" cy="1388.73" rx="17.0079" ry="17.0079" class="st2"/>
		</g>
		<g id="shape105-361" transform="translate(886.184,-1239.39)">
			<title>Rectangle.105</title>
			<desc>Comparison</desc>
			<rect x="0" y="1361.88" width="63.248" height="43.8662" class="st8"/>
			<text x="7.41" y="1386.81" class="st11">Comparison</text>		</g>
		<g id="shape106-364" transform="translate(861.115,-1149.78)">
			<title>Action.106</title>
			<desc>Filter control and test node&#39;s attributes</desc>
			<rect x="0" y="1347.58" width="113.386" height="58.1589" rx="8.50394" ry="8.50394" class="st9"/>
			<text x="14.71" y="1365.86" class="st5">Filter control and <tspan x="29.86" dy="1.2em" class="st10">test node&#39;s </tspan><tspan
						x="32.68" dy="1.2em" class="st10">attributes</tspan></text>		</g>
		<g id="shape107-369" transform="translate(876.245,-1070.52)">
			<title>Rectangle.107</title>
			<desc>Filtered control and test attributes</desc>
			<rect x="0" y="1361.88" width="83.126" height="43.8662" class="st8"/>
			<text x="26.24" y="1374.81" class="st11">Filtered <tspan x="9.59" dy="1.2em" class="st10">control and test </tspan><tspan
						x="21.63" dy="1.2em" class="st10">attributes</tspan></text>		</g>
		<g id="shape108-374" transform="translate(861.115,-978.328)">
			<title>Action.108</title>
			<desc>Match control attributes with test attributes</desc>
			<rect x="0" y="1347.58" width="113.386" height="58.1589" rx="8.50394" ry="8.50394" class="st9"/>
			<text x="22.14" y="1365.86" class="st5">Match control <tspan x="20.5" dy="1.2em" class="st10">attributes with </tspan><tspan
						x="21.98" dy="1.2em" class="st10">test attributes</tspan></text>		</g>
		<g id="shape109-379" transform="translate(870.843,-886.153)">
			<title>Rectangle.109</title>
			<desc>Attribute comparisons (pairs of control and test attributes)</desc>
			<rect x="0" y="1347.58" width="93.9293" height="58.1589" class="st8"/>
			<text x="28.66" y="1361.66" class="st11">Attribute <tspan x="21.33" dy="1.2em" class="st10">comparisons</tspan><tspan
						x="5.99" dy="1.2em" class="st10">(pairs of control and </tspan><tspan x="16.7" dy="1.2em" class="st10">test attributes)</tspan></text>		</g>
		<g id="shape111-385" transform="translate(154.371,-207.109)">
			<title>Join node.111</title>
			<rect x="0" y="1388.73" width="70.8661" height="17.0079" class="st2"/>
		</g>
		<g id="shape112-387" transform="translate(182.717,-288.746)">
			<title>Dynamic connector.112</title>
			<path d="M7.09 1405.74 L7.09 1463.83" class="st14"/>
		</g>
		<g id="shape113-392" transform="translate(196.851,-207.109)">
			<title>Dynamic connector.113</title>
			<path d="M-7.05 1405.74 L-7.11 1439.81" class="st14"/>
		</g>
		<g id="shape114-397" transform="translate(674.029,-791.925)">
			<title>Dynamic connector.114</title>
			<path d="M0 1405.74 L36 1405.74 L36 863.12 L220.23 863.12" class="st14"/>
		</g>
		<g id="shape115-402" transform="translate(882.375,-836.595)">
			<title>Fork node.115</title>
			<rect x="0" y="1388.73" width="70.8661" height="17.0079" class="st2"/>
		</g>
		<g id="shape116-404" transform="translate(910.721,-1317.54)">
			<title>Dynamic connector.116</title>
			<path d="M7.09 1405.74 L7.09 1433.49" class="st14"/>
		</g>
		<g id="shape117-409" transform="translate(910.721,-1239.39)">
			<title>Dynamic connector.117</title>
			<path d="M7.09 1405.74 L7.09 1430.65" class="st14"/>
		</g>
		<g id="shape118-414" transform="translate(910.721,-1149.78)">
			<title>Dynamic connector.118</title>
			<path d="M7.09 1405.74 L7.09 1434.59" class="st14"/>
		</g>
		<g id="shape119-419" transform="translate(910.721,-1070.52)">
			<title>Dynamic connector.119</title>
			<path d="M7.09 1405.74 L7.09 1433.24" class="st14"/>
		</g>
		<g id="shape120-424" transform="translate(910.721,-978.328)">
			<title>Dynamic connector.120</title>
			<path d="M7.09 1405.74 L7.09 1433.22" class="st14"/>
		</g>
		<g id="shape121-429" transform="translate(910.721,-886.153)">
			<title>Dynamic connector.121</title>
			<path d="M7.09 1405.74 L7.09 1431.75" class="st14"/>
		</g>
		<g id="shape122-434" transform="translate(765.162,-732.929)">
			<title>Action.122</title>
			<desc>Find unmatched control and test attributes</desc>
			<rect x="0" y="1347.58" width="113.386" height="58.1589" rx="8.50394" ry="8.50394" class="st2"/>
			<text x="17.09" y="1365.86" class="st5">Find unmatched <tspan x="17.95" dy="1.2em" class="st10">control and test </tspan><tspan
						x="32.68" dy="1.2em" class="st10">attributes</tspan></text>		</g>
		<g id="shape123-439" transform="translate(733.113,-577.922)">
			<title>Rectangle.123</title>
			<desc>Unmatched control attributes</desc>
			<rect x="0" y="1361.88" width="63.248" height="43.8662" class="st8"/>
			<text x="8.04" y="1374.81" class="st11">Unmatched <tspan x="17.3" dy="1.2em" class="st10">control </tspan><tspan
						x="11.69" dy="1.2em" class="st10">attributes</tspan></text>		</g>
		<g id="shape124-444" transform="translate(786.422,-679.828)">
			<title>Fork node.124</title>
			<rect x="0" y="1388.73" width="70.8661" height="17.0079" class="st2"/>
		</g>
		<g id="shape125-446" transform="translate(858.422,-577.922)">
			<title>Rectangle.125</title>
			<desc>Unmatched test attributes</desc>
			<rect x="0" y="1361.88" width="63.248" height="43.8662" class="st8"/>
			<text x="8.04" y="1374.81" class="st11">Unmatched <tspan x="23.94" dy="1.2em" class="st10">test </tspan><tspan
						x="11.69" dy="1.2em" class="st10">attributes</tspan></text>		</g>
		<g id="shape126-451" transform="translate(708.044,-474.387)">
			<title>Action.126</title>
			<desc>Create MissingAttrDiff for each unmatched control attribute</desc>
			<rect x="0" y="1329.37" width="113.386" height="76.3745" rx="8.50394" ry="8.50394" class="st2"/>
			<text x="40.55" y="1349.55" class="st5">Create <tspan x="10.04" dy="1.2em" class="st15">MissingAttrDiff </tspan>for <tspan
						x="15.98" dy="1.2em" class="st10">each unmatched </tspan><tspan x="16.18" dy="1.2em" class="st10">control attribute</tspan></text>		</g>
		<g id="shape127-457" transform="translate(833.348,-474.387)">
			<title>Action.127</title>
			<desc>Create UnexpectedAttrDiff for each unmatched test attribute</desc>
			<rect x="0" y="1329.37" width="113.386" height="76.3745" rx="8.50394" ry="8.50394" class="st2"/>
			<text x="40.55" y="1349.55" class="st5">Create <tspan x="8.17" dy="1.2em" class="st15">UnexpectedAttrDiff </tspan><tspan
						x="7.54" dy="1.2em" class="st10">for each unmatched </tspan><tspan x="24.32" dy="1.2em" class="st10">test attribute</tspan></text>		</g>
		<g id="shape128-463" transform="translate(790.249,-331.875)">
			<title>Join node.128</title>
			<rect x="0" y="1388.73" width="70.8661" height="17.0079" class="st2"/>
		</g>
		<g id="shape129-465" transform="translate(720.579,-399.34)">
			<title>Rectangle.129</title>
			<desc>MissingAttrDiffs</desc>
			<rect x="0" y="1361.88" width="88.3169" height="43.8662" class="st8"/>
			<text x="10.35" y="1386.81" class="st18">MissingAttrDiffs</text>		</g>
		<g id="shape130-468" transform="translate(837.666,-399.34)">
			<title>Rectangle.130</title>
			<desc>UnexpectedAttrDiffs</desc>
			<rect x="0" y="1361.88" width="104.74" height="43.8662" class="st8"/>
			<text x="9.96" y="1386.81" class="st18">UnexpectedAttrDiffs</text>		</g>
		<g id="shape131-471" transform="translate(900.092,-836.595)">
			<title>Dynamic connector.131</title>
			<path d="M0 1405.74 L0 1425.87 L-78.24 1425.87 L-78.24 1444.71" class="st14"/>
		</g>
		<g id="shape132-476" transform="translate(814.769,-732.929)">
			<title>Dynamic connector.132</title>
			<path d="M7.09 1405.74 L7.09 1435.3" class="st14"/>
		</g>
		<g id="shape133-481" transform="translate(804.139,-679.828)">
			<title>Dynamic connector.133</title>
			<path d="M0 1405.74 L0 1441.74 L-39.4 1441.74 L-39.4 1457.24" class="st14"/>
		</g>
		<g id="shape134-486" transform="translate(839.572,-679.828)">
			<title>Dynamic connector.134</title>
			<path d="M0 1405.74 L0 1441.74 L50.47 1441.74 L50.47 1457.24" class="st14"/>
		</g>
		<g id="shape135-491" transform="translate(897.13,-577.922)">
			<title>Dynamic connector.135</title>
			<path d="M-7.08 1405.74 L-7.09 1426.36" class="st14"/>
		</g>
		<g id="shape136-496" transform="translate(757.651,-577.922)">
			<title>Dynamic connector.136</title>
			<path d="M7.09 1405.74 L7.09 1426.36" class="st14"/>
		</g>
		<g id="shape137-501" transform="translate(757.651,-474.387)">
			<title>Dynamic connector.137</title>
			<path d="M7.09 1405.74 L7.09 1430.38" class="st14"/>
		</g>
		<g id="shape138-506" transform="translate(897.125,-474.387)">
			<title>Dynamic connector.138</title>
			<path d="M-7.08 1405.74 L-7.09 1430.38" class="st14"/>
		</g>
		<g id="shape139-511" transform="translate(890.036,-399.34)">
			<title>Dynamic connector.139</title>
			<path d="M0 1405.74 L0 1426.28 L-46.64 1426.28 L-46.64 1449.66" class="st14"/>
		</g>
		<g id="shape140-516" transform="translate(764.737,-399.34)">
			<title>Dynamic connector.140</title>
			<path d="M0 1405.74 L0 1428.55 L43.23 1428.55 L43.23 1449.66" class="st14"/>
		</g>
		<g id="shape141-521" transform="translate(928.651,-732.929)">
			<title>Action.141</title>
			<desc>Compare matched control and test attribute</desc>
			<rect x="0" y="1347.58" width="130.89" height="58.1589" rx="8.50394" ry="8.50394" class="st9"/>
			<text x="20.32" y="1365.86" class="st5">Compare matched <tspan x="26.71" dy="1.2em" class="st10">control and test </tspan><tspan
						x="43.78" dy="1.2em" class="st10">attribute</tspan></text>		</g>
		<g id="shape142-526" transform="translate(1011.35,-643.686)">
			<title>Decision.142</title>
			<desc>are attributes different?</desc>
			<path d="M17.01 1405.74 L34.02 1388.73 L17.01 1371.73 L0 1388.73 L17.01 1405.74 Z" class="st2"/>
			<text x="-16.31" y="1420.54" class="st5">are attributes <tspan x="-7.19" dy="1.2em" class="st10">different?</tspan></text>		</g>
		<g id="shape143-530" transform="translate(935.525,-836.595)">
			<title>Dynamic connector.143</title>
			<path d="M0 1405.74 L0 1427 L58.57 1427 L58.57 1444.71" class="st14"/>
		</g>
		<g id="shape144-535" transform="translate(867.731,-264.411)">
			<title>Join node.144</title>
			<rect x="0" y="1388.73" width="70.8661" height="17.0079" class="st2"/>
		</g>
		<g id="shape145-537" transform="translate(825.682,-331.875)">
			<title>Dynamic connector.145</title>
			<path d="M0 1405.74 L0 1432.1 L59.77 1432.1 L59.77 1449.66" class="st14"/>
		</g>
		<g id="shape146-542" transform="translate(994.095,-732.929)">
			<title>Dynamic connector.146</title>
			<path d="M0 1405.74 L0 1441.74 L34.26 1441.74 L34.26 1454.43" class="st14"/>
		</g>
		<g id="shape147-547" transform="translate(988.674,-323.175)">
			<title>Merge Node.147</title>
			<path d="M17.01 1405.74 L34.02 1388.73 L17.01 1371.73 L0 1388.73 L17.01 1405.74 Z" class="st2"/>
		</g>
		<g id="shape148-549" transform="translate(988.532,-500.04)">
			<title>Action.148</title>
			<desc>Create AttrDiff</desc>
			<rect x="0" y="1371.73" width="113.386" height="34.0157" rx="8.50394" ry="8.50394" class="st2"/>
			<text x="20.23" y="1392.33" class="st5">Create <tspan class="st15">AttrDiff</tspan></text>		</g>
		<g id="shape149-553" transform="translate(1052.38,-660.694)">
			<title>Dynamic connector.149</title>
			<desc>yes</desc>
			<path d="M-7.02 1405.74 L28.98 1405.74 L28.98 1487.16 L-7.16 1487.16 L-7.16 1525.84" class="st14"/>
			<rect x="23.6191" y="1464.33" width="10.7303" height="9.59985" class="st19"/>
			<text x="23.62" y="1471.53" class="st20">yes</text>		</g>
		<g id="shape150-560" transform="translate(1011.35,-660.694)">
			<title>Dynamic connector.150</title>
			<desc>no</desc>
			<path d="M0 1405.74 L-42.07 1405.74 L-42.07 1726.25 L-29.22 1726.25" class="st14"/>
			<rect x="-46.2831" y="1549.86" width="8.42184" height="9.59985" class="st19"/>
			<text x="-46.28" y="1557.06" class="st20">no</text>		</g>
		<g id="shape151-567" transform="translate(1038.14,-500.04)">
			<title>Dynamic connector.151</title>
			<path d="M7.09 1405.74 L7.09 1471.2" class="st14"/>
		</g>
		<g id="shape152-572" transform="translate(1005.68,-323.175)">
			<title>Dynamic connector.152</title>
			<path d="M0 1405.74 L0 1423.74 L-84.8 1423.74 L-84.8 1440.96" class="st14"/>
		</g>
		<g id="shape153-577" transform="translate(482.69,-267.753)">
			<title>Merge Node.153</title>
			<path d="M17.01 1405.74 L34.02 1388.73 L17.01 1371.73 L0 1388.73 L17.01 1405.74 Z" class="st2"/>
		</g>
		<g id="shape154-579" transform="translate(492.611,-267.753)">
			<title>Dynamic connector.154</title>
			<path d="M7.09 1405.74 L7.09 1417.88" class="st14"/>
		</g>
		<g id="shape155-584" transform="translate(896.078,-264.411)">
			<title>Dynamic connector.155</title>
			<path d="M7.09 1405.74 L7.09 1437.36" class="st14"/>
		</g>
		<g id="shape156-589" transform="translate(886.156,-105.103)">
			<title>Final node.156</title>
			<path d="M30.61 1388.73 A13.6063 13.6063 -180 1 0 3.4 1388.73 A13.6063 13.6063 -180 1 0 30.61 1388.73 Z" class="st16"/>
			<path d="M34.02 1388.73 A17.0079 17.0079 -180 1 0 0 1388.73 A17.0079 17.0079 -180 1 0 34.02 1388.73" class="st17"/>
			<path d="M30.61 1388.73 A13.6063 13.6063 -180 1 0 3.4 1388.73 A13.6063 13.6063 -180 1 0 30.61 1388.73" class="st17"/>
		</g>
		<g id="shape157-593" transform="translate(886.156,-122.111)">
			<title>Dynamic connector.157</title>
			<path d="M0 1405.74 L-138.43 1405.74 L-138.43 1243.09 L-362.91 1243.09" class="st14"/>
		</g>
		<g id="shape159-598" transform="translate(1013.6,-384.174)">
			<title>Rectangle.159</title>
			<desc>AttrDiffs</desc>
			<rect x="0" y="1361.88" width="63.248" height="43.8662" class="st8"/>
			<text x="13.85" y="1386.81" class="st18">AttrDiffs</text>		</g>
		<g id="shape160-601" transform="translate(1045.23,-384.174)">
			<title>Dynamic connector.160</title>
			<path d="M0 1405.74 L0 1449.73 L-16 1449.73" class="st14"/>
		</g>
		<g id="shape161-606" transform="translate(871.54,-182.383)">
			<title>Rectangle.161</title>
			<desc>Diffs</desc>
			<rect x="0" y="1361.88" width="63.248" height="43.8662" class="st8"/>
			<text x="22.11" y="1386.81" class="st18">Diffs</text>		</g>
		<g id="shape162-609" transform="translate(896.078,-182.383)">
			<title>Dynamic connector.162</title>
			<path d="M7.09 1405.74 L7.09 1442.47" class="st14"/>
		</g>
	</g>
</svg>
